<mxfile host="app.diagrams.net" agent="Mozilla/5.0 (Windows NT 10.0; Win64; x64) AppleWebKit/537.36 (KHTML, like Gecko) Chrome/136.0.0.0 Safari/537.36" version="27.0.6">
  <diagram name="Page-1" id="oMIYGzqxvDXtzMzbmdSy">
    <mxGraphModel dx="1281" dy="562" grid="1" gridSize="10" guides="1" tooltips="1" connect="1" arrows="1" fold="1" page="1" pageScale="1" pageWidth="850" pageHeight="1100" math="0" shadow="0">
      <root>
        <mxCell id="0" />
        <mxCell id="1" parent="0" />
        <mxCell id="vWdEPJdMvfoSfPCv0w1I-3" value="" style="edgeStyle=orthogonalEdgeStyle;rounded=0;orthogonalLoop=1;jettySize=auto;html=1;" parent="1" source="vWdEPJdMvfoSfPCv0w1I-1" target="vWdEPJdMvfoSfPCv0w1I-2" edge="1">
          <mxGeometry relative="1" as="geometry" />
        </mxCell>
        <mxCell id="vWdEPJdMvfoSfPCv0w1I-1" value="get_out_from&lt;div&gt;train&lt;/div&gt;" style="rounded=0;whiteSpace=wrap;html=1;" parent="1" vertex="1">
          <mxGeometry x="140" y="60" width="120" height="60" as="geometry" />
        </mxCell>
        <mxCell id="vWdEPJdMvfoSfPCv0w1I-5" value="" style="edgeStyle=orthogonalEdgeStyle;rounded=0;orthogonalLoop=1;jettySize=auto;html=1;" parent="1" source="vWdEPJdMvfoSfPCv0w1I-2" target="vWdEPJdMvfoSfPCv0w1I-4" edge="1">
          <mxGeometry relative="1" as="geometry" />
        </mxCell>
        <mxCell id="vWdEPJdMvfoSfPCv0w1I-2" value="scan_the_card" style="rounded=0;whiteSpace=wrap;html=1;" parent="1" vertex="1">
          <mxGeometry x="140" y="180" width="120" height="60" as="geometry" />
        </mxCell>
        <mxCell id="vWdEPJdMvfoSfPCv0w1I-7" value="" style="edgeStyle=orthogonalEdgeStyle;rounded=0;orthogonalLoop=1;jettySize=auto;html=1;" parent="1" source="vWdEPJdMvfoSfPCv0w1I-4" target="vWdEPJdMvfoSfPCv0w1I-6" edge="1">
          <mxGeometry relative="1" as="geometry" />
        </mxCell>
        <mxCell id="vWdEPJdMvfoSfPCv0w1I-4" value="obtain_the_stationId" style="rounded=0;whiteSpace=wrap;html=1;" parent="1" vertex="1">
          <mxGeometry x="140" y="320" width="120" height="60" as="geometry" />
        </mxCell>
        <mxCell id="gDONSXWhlQYHgkMFfET1-2" value="" style="edgeStyle=orthogonalEdgeStyle;rounded=0;orthogonalLoop=1;jettySize=auto;html=1;" edge="1" parent="1" source="vWdEPJdMvfoSfPCv0w1I-6" target="gDONSXWhlQYHgkMFfET1-1">
          <mxGeometry relative="1" as="geometry" />
        </mxCell>
        <mxCell id="gDONSXWhlQYHgkMFfET1-4" value="" style="edgeStyle=orthogonalEdgeStyle;rounded=0;orthogonalLoop=1;jettySize=auto;html=1;" edge="1" parent="1" source="vWdEPJdMvfoSfPCv0w1I-6" target="gDONSXWhlQYHgkMFfET1-3">
          <mxGeometry relative="1" as="geometry" />
        </mxCell>
        <mxCell id="vWdEPJdMvfoSfPCv0w1I-6" value="calculate_the_price" style="rounded=0;whiteSpace=wrap;html=1;" parent="1" vertex="1">
          <mxGeometry x="140" y="460" width="120" height="60" as="geometry" />
        </mxCell>
        <mxCell id="gDONSXWhlQYHgkMFfET1-1" value="using_the_data_stored&lt;div&gt;in_the _ESP32&lt;/div&gt;" style="shape=hexagon;perimeter=hexagonPerimeter2;whiteSpace=wrap;html=1;fixedSize=1;rounded=0;" vertex="1" parent="1">
          <mxGeometry x="320" y="440" width="150" height="100" as="geometry" />
        </mxCell>
        <mxCell id="gDONSXWhlQYHgkMFfET1-6" value="" style="edgeStyle=orthogonalEdgeStyle;rounded=0;orthogonalLoop=1;jettySize=auto;html=1;" edge="1" parent="1" source="gDONSXWhlQYHgkMFfET1-3" target="gDONSXWhlQYHgkMFfET1-5">
          <mxGeometry relative="1" as="geometry" />
        </mxCell>
        <mxCell id="gDONSXWhlQYHgkMFfET1-3" value="send_the_data&lt;div&gt;to_aws (nic, amount_left,&lt;/div&gt;&lt;div&gt;station_id,task id 3&lt;/div&gt;" style="rounded=0;whiteSpace=wrap;html=1;" vertex="1" parent="1">
          <mxGeometry x="105" y="600" width="190" height="120" as="geometry" />
        </mxCell>
        <mxCell id="gDONSXWhlQYHgkMFfET1-8" value="" style="edgeStyle=orthogonalEdgeStyle;rounded=0;orthogonalLoop=1;jettySize=auto;html=1;" edge="1" parent="1" source="gDONSXWhlQYHgkMFfET1-5" target="gDONSXWhlQYHgkMFfET1-7">
          <mxGeometry relative="1" as="geometry" />
        </mxCell>
        <mxCell id="gDONSXWhlQYHgkMFfET1-5" value="update_the_card" style="whiteSpace=wrap;html=1;rounded=0;" vertex="1" parent="1">
          <mxGeometry x="360" y="630" width="120" height="60" as="geometry" />
        </mxCell>
        <mxCell id="gDONSXWhlQYHgkMFfET1-7" value="make_the_card&lt;div&gt;Stationid = 0&lt;/div&gt;" style="whiteSpace=wrap;html=1;rounded=0;" vertex="1" parent="1">
          <mxGeometry x="560" y="630" width="120" height="60" as="geometry" />
        </mxCell>
        <mxCell id="gDONSXWhlQYHgkMFfET1-9" value="" style="endArrow=classic;html=1;rounded=0;exitX=0.5;exitY=0;exitDx=0;exitDy=0;entryX=1;entryY=0.5;entryDx=0;entryDy=0;" edge="1" parent="1" source="gDONSXWhlQYHgkMFfET1-7" target="vWdEPJdMvfoSfPCv0w1I-1">
          <mxGeometry width="50" height="50" relative="1" as="geometry">
            <mxPoint x="410" y="490" as="sourcePoint" />
            <mxPoint x="460" y="440" as="targetPoint" />
            <Array as="points">
              <mxPoint x="620" y="90" />
            </Array>
          </mxGeometry>
        </mxCell>
      </root>
    </mxGraphModel>
  </diagram>
</mxfile>
